<svg width="512" height="186" viewBox="0 0 512 186" fill="none" xmlns="http://www.w3.org/2000/svg">
<path d="M27.127 30.5038C16.68 34.8798 5.19701 47.2268 1.57001 62.7368C-3.02399 82.3818 16.09 90.6918 17.659 87.9708C19.504 84.7698 14.234 83.6878 13.149 73.4938C11.747 60.3278 17.868 45.6168 25.572 39.1618C27.002 37.9618 26.935 39.6318 26.935 42.7188C26.935 48.2398 26.63 97.8038 26.63 108.148C26.63 122.144 26.052 126.564 25.013 130.932C23.962 135.357 22.27 138.348 23.551 139.5C24.983 140.788 31.097 137.723 34.636 132.784C38.88 126.86 40.366 119.744 40.633 112.019C40.955 102.705 40.941 87.9248 40.955 79.4948C40.967 71.7638 41.085 49.1248 40.819 35.5148C40.754 32.1748 31.496 28.6728 27.127 30.5038" fill="#343433"/>
<path d="M398.07 96.0068C397.733 103.284 396.122 108.971 394.123 112.983C390.253 120.75 382.223 123.161 378.813 111.997C376.955 105.911 376.868 95.7468 378.203 87.2538C379.563 78.6028 383.361 72.0688 389.648 72.6578C395.85 73.2408 398.753 81.2318 398.07 96.0078V96.0068ZM293.52 141.153C293.436 153.243 291.533 163.843 287.453 166.923C281.665 171.289 273.886 168.013 275.497 159.191C276.922 151.384 283.663 143.411 293.537 133.669C293.537 133.669 293.557 135.891 293.52 141.153ZM291.94 95.9358C291.586 102.564 289.868 109.221 287.993 112.983C284.123 120.75 276.035 123.178 272.683 111.997C270.391 104.357 270.94 94.4708 272.073 88.2408C273.545 80.1578 277.113 72.6588 283.518 72.6588C289.746 72.6588 292.818 79.4918 291.94 95.9358ZM231.375 95.8358C230.995 102.854 229.626 108.721 227.429 112.983C223.453 120.697 215.587 123.143 212.119 111.997C209.618 103.96 210.469 93.0018 211.509 87.0818C213.053 78.2968 216.919 72.0688 222.954 72.6588C229.153 73.2648 232.166 81.2318 231.375 95.8358V95.8358ZM508.928 104.034C507.413 104.034 506.721 105.596 506.148 108.224C504.165 117.368 502.078 119.431 499.389 119.431C496.384 119.431 493.684 114.905 492.989 105.843C492.444 98.7168 492.532 85.5988 493.229 72.5498C493.372 69.8688 492.632 67.2158 485.441 64.6038C482.347 63.4798 477.849 61.8248 475.609 67.2308C469.282 82.5048 466.806 94.6308 466.223 99.5548C466.193 99.8098 465.88 99.8628 465.826 99.2668C465.454 95.3218 464.625 88.1518 464.521 73.0898C464.501 70.1508 463.879 67.6498 460.635 65.6018C458.53 64.2718 452.139 61.9218 449.838 64.7188C447.844 67.0048 445.534 73.1588 443.135 80.4548C441.185 86.3848 439.827 90.3948 439.827 90.3948C439.827 90.3948 439.853 74.3968 439.876 68.3278C439.886 66.0388 438.316 65.2758 437.842 65.1378C435.712 64.5198 431.512 63.4868 429.73 63.4868C427.53 63.4868 426.992 64.7148 426.992 66.5068C426.992 66.7418 426.645 87.5698 426.645 102.134C426.645 102.767 426.645 103.457 426.648 104.191C425.432 110.885 421.487 119.971 417.197 119.971C412.901 119.971 410.875 116.173 410.875 98.8098C410.875 88.6808 411.179 84.2758 411.328 76.9498C411.415 72.7298 411.583 69.4898 411.573 68.7548C411.541 66.4998 407.643 65.3628 405.828 64.9428C404.005 64.5198 402.421 64.3548 401.184 64.4258C399.433 64.5258 398.194 65.6728 398.194 67.2528C398.194 68.1008 398.204 69.7108 398.204 69.7108C395.949 66.1668 392.322 63.7008 389.909 62.9858C383.409 61.0558 376.627 62.7658 371.511 69.9248C367.445 75.6118 364.994 82.0548 364.029 91.3098C363.324 98.0768 363.554 104.938 364.808 110.741C363.293 117.289 360.482 119.971 357.403 119.971C352.933 119.971 349.693 112.677 350.069 100.059C350.317 91.7598 351.978 85.9358 353.793 77.5098C354.567 73.9178 353.938 72.0378 352.361 70.2358C350.914 68.5828 347.831 67.7378 343.401 68.7758C340.245 69.5168 335.732 70.3138 331.603 70.9258C331.603 70.9258 331.853 69.9308 332.057 68.1788C333.131 58.9888 323.144 59.7338 319.957 62.6688C318.056 64.4218 316.761 66.4888 316.27 70.2048C315.49 76.1028 320.3 78.8848 320.3 78.8848C318.723 86.1088 314.854 95.5448 310.86 102.368C308.721 106.023 307.085 108.732 304.972 111.611C304.903 100.057 304.978 88.5028 305.198 76.9508C305.285 72.7308 305.454 69.5768 305.445 68.8408C305.421 67.1928 304.458 66.5688 302.455 65.7808C300.683 65.0828 298.589 64.6008 296.416 64.4308C293.674 64.2188 292.022 65.6718 292.066 67.3918C292.074 67.7168 292.074 69.7108 292.074 69.7108C289.819 66.1668 286.192 63.7008 283.779 62.9858C277.279 61.0558 270.497 62.7658 265.381 69.9248C261.316 75.6118 258.654 83.5938 257.899 91.2398C257.197 98.3648 257.326 104.42 258.284 109.522C257.251 114.63 254.279 119.972 250.92 119.972C246.624 119.972 244.18 116.173 244.18 98.8098C244.18 88.6808 244.484 84.2758 244.634 76.9498C244.721 72.7308 244.888 69.4898 244.879 68.7548C244.847 66.4998 240.948 65.3638 239.133 64.9428C237.235 64.5028 235.596 64.3428 234.337 64.4358C232.677 64.5588 231.509 66.0458 231.509 67.1548V69.7108C229.254 66.1668 225.627 63.7008 223.214 62.9858C216.714 61.0558 209.97 62.7938 204.816 69.9248C201.456 74.5738 198.735 79.7278 197.335 91.1378C196.93 94.4348 196.751 97.5238 196.775 100.409C195.435 108.605 189.515 118.051 184.674 118.051C181.841 118.051 179.142 112.555 179.142 100.844C179.142 85.2438 180.108 63.0318 180.272 60.8918C180.272 60.8918 186.389 60.7878 187.573 60.7738C190.625 60.7398 193.388 60.8128 197.453 60.6038C199.491 60.5008 201.455 53.1838 199.351 52.2788C198.397 51.8688 191.658 51.5108 188.986 51.4538C186.74 51.4038 180.486 50.9398 180.486 50.9398C180.486 50.9398 181.047 36.1968 181.178 34.6398C181.288 33.3408 179.608 32.6728 178.646 32.2678C176.304 31.2778 174.209 30.8028 171.726 30.2908C168.294 29.5828 166.738 30.2758 166.434 33.1708C165.976 37.5658 165.739 50.4388 165.739 50.4388C163.221 50.4388 154.619 49.9468 152.101 49.9468C149.761 49.9468 147.235 60.0108 150.471 60.1348C154.193 60.2788 160.68 60.4048 164.98 60.5328C164.98 60.5328 164.788 83.1108 164.788 90.0828C164.788 90.8228 164.792 91.5378 164.796 92.2308C162.429 104.566 154.093 111.23 154.093 111.23C155.883 103.069 152.226 96.9398 145.639 91.7518C143.212 89.8408 138.421 86.2218 133.061 82.2558C133.061 82.2558 136.165 79.1958 138.919 73.0398C140.869 68.6778 140.954 63.6888 136.165 62.5878C128.253 60.7678 121.73 66.5788 119.784 72.7828C118.276 77.5888 119.08 81.1538 122.034 84.8578C122.249 85.1288 122.484 85.4058 122.724 85.6838C120.939 89.1258 118.485 93.7608 116.407 97.3548C110.639 107.335 106.282 115.227 102.989 115.227C100.357 115.227 100.392 107.213 100.392 99.7098C100.392 93.2418 100.87 83.5168 101.252 73.4498C101.378 70.1198 99.712 68.2228 96.922 66.5048C95.226 65.4608 91.607 63.4088 89.511 63.4088C86.373 63.4088 77.321 63.8358 68.769 88.5758C67.691 91.6938 65.573 97.3758 65.573 97.3758L65.756 67.6248C65.756 66.9268 65.384 66.2528 64.533 65.7918C63.092 65.0088 59.243 63.4088 55.82 63.4088C54.19 63.4088 53.375 64.1668 53.375 65.6788L53.077 112.225C53.077 115.762 53.169 119.888 53.519 121.692C53.867 123.498 54.432 124.968 55.13 125.842C55.829 126.715 56.636 127.382 57.967 127.656C59.206 127.911 65.99 128.782 66.343 126.19C66.765 123.082 66.782 119.722 70.344 107.188C75.89 87.6738 83.12 78.1538 86.52 74.7718C87.115 74.1818 87.793 74.1458 87.76 75.1128C87.616 79.3908 87.105 90.0828 86.762 99.1628C85.841 123.468 90.262 127.973 96.581 127.973C101.415 127.973 108.229 123.17 115.533 111.012C119.603 104.236 123.654 97.4497 127.686 90.6518C129.899 92.7008 132.384 94.9058 134.866 97.2618C140.636 102.738 142.53 107.942 141.273 112.878C140.313 116.651 136.692 120.54 130.249 116.761C128.371 115.658 127.569 114.805 125.681 113.562C124.667 112.895 123.118 112.695 122.189 113.395C119.777 115.213 118.397 117.527 117.609 120.391C116.843 123.178 119.634 124.651 122.528 125.94C125.019 127.049 130.374 128.054 133.788 128.168C147.093 128.613 157.752 121.744 165.172 104.025C166.5 119.328 172.152 127.987 181.973 127.987C188.539 127.987 195.122 119.5 198.001 111.151C198.827 114.554 200.051 117.514 201.631 120.017C209.198 132.007 223.878 129.427 231.252 119.245C233.532 116.099 233.879 114.969 233.879 114.969C234.955 124.582 242.697 127.941 247.129 127.941C252.094 127.941 257.219 125.594 260.812 117.506C261.233 118.384 261.693 119.223 262.195 120.017C269.762 132.007 284.443 129.427 291.817 119.245C292.165 118.767 292.467 118.335 292.73 117.945L292.946 124.26L286.157 130.487C274.777 140.917 266.133 148.827 265.497 158.04C264.687 169.787 274.209 174.153 281.423 174.725C289.07 175.332 295.631 171.104 299.657 165.187C303.201 159.978 305.521 148.768 305.35 137.697C305.283 133.263 305.17 127.626 305.083 121.583C309.078 116.944 313.579 111.08 317.723 104.218C322.239 96.7388 327.079 86.6948 329.557 78.8778C329.557 78.8778 333.762 78.9148 338.25 78.6208C339.685 78.5268 340.098 78.8208 339.832 79.8718C339.512 81.1438 334.162 101.777 339.045 115.522C342.386 124.932 349.919 127.958 354.385 127.958C359.614 127.958 364.615 124.01 367.295 118.148C367.619 118.801 367.956 119.433 368.325 120.018C375.892 132.008 390.521 129.411 397.947 119.245C399.623 116.951 400.574 114.969 400.574 114.969C402.167 124.919 409.905 127.992 414.337 127.992C418.953 127.992 423.335 126.099 426.889 117.688C427.039 121.392 427.272 124.42 427.641 125.374C427.866 125.959 429.178 126.691 430.132 127.045C434.356 128.611 438.662 127.871 440.256 127.549C441.36 127.325 442.221 126.439 442.339 124.153C442.649 118.148 442.459 108.059 444.279 100.56C447.334 87.9768 450.185 83.0958 451.537 80.6798C452.294 79.3248 453.147 79.1018 453.178 80.5348C453.242 83.4348 453.386 91.9478 454.57 103.388C455.44 111.8 456.6 116.773 457.493 118.348C460.041 122.848 463.186 123.061 465.748 123.061C467.378 123.061 470.786 122.611 470.481 119.747C470.332 118.351 470.592 109.723 473.605 97.3258C475.572 89.2298 478.852 81.9158 480.035 79.2408C480.472 78.2548 480.675 79.0318 480.667 79.1838C480.418 84.7588 479.859 102.995 482.13 112.969C485.21 126.48 494.116 127.992 497.22 127.992C503.846 127.992 509.265 122.952 511.09 109.69C511.53 106.498 510.879 104.034 508.928 104.034Z" fill="#343433"/>
</svg>
